<svg xmlns="http://www.w3.org/2000/svg" xmlns:xlink="http://www.w3.org/1999/xlink" width="800" zoomAndPan="magnify" viewBox="0 0 600 74.999997" height="100" preserveAspectRatio="xMidYMid meet" version="1.0"><defs><g/></defs><g fill="#00ff03" fill-opacity="1"><g transform="translate(187.841272, 46.850613)"><g><path d="M 2.25 0 L 0.875 -17.390625 L 2.734375 -17.390625 L 3.46875 -7.421875 L 3.84375 -2.171875 L 4.03125 -2.171875 L 6.328125 -12.859375 L 8.671875 -12.859375 L 10.96875 -2.171875 L 11.171875 -2.171875 L 11.53125 -7.421875 L 12.265625 -17.390625 L 14.078125 -17.390625 L 12.703125 0 L 9.6875 0 L 7.578125 -10.390625 L 7.375 -10.390625 L 5.265625 0 Z M 2.25 0 "/></g></g></g><g fill="#00ff03" fill-opacity="1"><g transform="translate(202.794934, 46.850613)"><g><path d="M 7.703125 0.296875 C 6.773438 0.296875 5.941406 0.140625 5.203125 -0.171875 C 4.460938 -0.484375 3.828125 -0.9375 3.296875 -1.53125 C 2.773438 -2.125 2.375 -2.832031 2.09375 -3.65625 C 1.8125 -4.476562 1.671875 -5.394531 1.671875 -6.40625 C 1.671875 -7.4375 1.816406 -8.363281 2.109375 -9.1875 C 2.398438 -10.019531 2.800781 -10.734375 3.3125 -11.328125 C 3.832031 -11.921875 4.453125 -12.375 5.171875 -12.6875 C 5.890625 -13 6.691406 -13.15625 7.578125 -13.15625 C 8.441406 -13.15625 9.222656 -13 9.921875 -12.6875 C 10.628906 -12.375 11.234375 -11.9375 11.734375 -11.375 C 12.234375 -10.820312 12.613281 -10.160156 12.875 -9.390625 C 13.144531 -8.628906 13.28125 -7.789062 13.28125 -6.875 L 13.28125 -5.9375 L 3.765625 -5.9375 L 3.765625 -5.328125 C 3.765625 -4.765625 3.851562 -4.242188 4.03125 -3.765625 C 4.21875 -3.285156 4.476562 -2.867188 4.8125 -2.515625 C 5.15625 -2.171875 5.570312 -1.898438 6.0625 -1.703125 C 6.550781 -1.515625 7.097656 -1.421875 7.703125 -1.421875 C 8.566406 -1.421875 9.3125 -1.617188 9.9375 -2.015625 C 10.570312 -2.410156 11.054688 -2.957031 11.390625 -3.65625 L 12.859375 -2.671875 C 12.472656 -1.804688 11.835938 -1.09375 10.953125 -0.53125 C 10.066406 0.0195312 8.984375 0.296875 7.703125 0.296875 Z M 7.578125 -11.515625 C 7.023438 -11.515625 6.515625 -11.414062 6.046875 -11.21875 C 5.585938 -11.019531 5.1875 -10.742188 4.84375 -10.390625 C 4.507812 -10.046875 4.242188 -9.632812 4.046875 -9.15625 C 3.859375 -8.6875 3.765625 -8.164062 3.765625 -7.59375 L 3.765625 -7.421875 L 11.140625 -7.421875 L 11.140625 -7.703125 C 11.140625 -8.265625 11.050781 -8.773438 10.875 -9.234375 C 10.695312 -9.703125 10.453125 -10.109375 10.140625 -10.453125 C 9.835938 -10.796875 9.46875 -11.054688 9.03125 -11.234375 C 8.59375 -11.421875 8.109375 -11.515625 7.578125 -11.515625 Z M 7.578125 -11.515625 "/></g></g></g><g fill="#00ff03" fill-opacity="1"><g transform="translate(217.748596, 46.850613)"><g/></g></g><g fill="#00ff03" fill-opacity="1"><g transform="translate(232.702258, 46.850613)"><g><path d="M 4.09375 -17.390625 L 4.09375 -6.953125 C 4.09375 -6.109375 4.113281 -5.351562 4.15625 -4.6875 C 4.207031 -4.019531 4.34375 -3.445312 4.5625 -2.96875 C 4.78125 -2.5 5.113281 -2.140625 5.5625 -1.890625 C 6.019531 -1.640625 6.660156 -1.515625 7.484375 -1.515625 C 8.296875 -1.515625 8.925781 -1.640625 9.375 -1.890625 C 9.832031 -2.140625 10.171875 -2.5 10.390625 -2.96875 C 10.609375 -3.445312 10.738281 -4.019531 10.78125 -4.6875 C 10.832031 -5.351562 10.859375 -6.109375 10.859375 -6.953125 L 10.859375 -17.390625 L 12.953125 -17.390625 L 12.953125 -7.453125 C 12.953125 -6.148438 12.890625 -5.015625 12.765625 -4.046875 C 12.640625 -3.085938 12.382812 -2.285156 12 -1.640625 C 11.613281 -0.992188 11.054688 -0.507812 10.328125 -0.1875 C 9.609375 0.132812 8.660156 0.296875 7.484375 0.296875 C 6.296875 0.296875 5.335938 0.132812 4.609375 -0.1875 C 3.890625 -0.507812 3.335938 -0.992188 2.953125 -1.640625 C 2.566406 -2.285156 2.3125 -3.085938 2.1875 -4.046875 C 2.0625 -5.015625 2 -6.148438 2 -7.453125 L 2 -17.390625 Z M 4.09375 -17.390625 "/></g></g></g><g fill="#00ff03" fill-opacity="1"><g transform="translate(247.65592, 46.850613)"><g><path d="M 7.625 0.296875 C 6.28125 0.296875 5.117188 0.0664062 4.140625 -0.390625 C 3.171875 -0.847656 2.347656 -1.457031 1.671875 -2.21875 L 3.015625 -3.390625 C 3.628906 -2.742188 4.300781 -2.242188 5.03125 -1.890625 C 5.757812 -1.546875 6.640625 -1.375 7.671875 -1.375 C 8.671875 -1.375 9.488281 -1.550781 10.125 -1.90625 C 10.769531 -2.257812 11.09375 -2.820312 11.09375 -3.59375 C 11.09375 -3.925781 11.03125 -4.203125 10.90625 -4.421875 C 10.78125 -4.648438 10.609375 -4.828125 10.390625 -4.953125 C 10.171875 -5.085938 9.925781 -5.191406 9.65625 -5.265625 C 9.394531 -5.347656 9.117188 -5.410156 8.828125 -5.453125 L 6.796875 -5.75 C 6.347656 -5.820312 5.863281 -5.914062 5.34375 -6.03125 C 4.820312 -6.144531 4.34375 -6.332031 3.90625 -6.59375 C 3.476562 -6.851562 3.117188 -7.195312 2.828125 -7.625 C 2.535156 -8.0625 2.390625 -8.628906 2.390625 -9.328125 C 2.390625 -9.972656 2.519531 -10.53125 2.78125 -11 C 3.039062 -11.476562 3.398438 -11.878906 3.859375 -12.203125 C 4.328125 -12.523438 4.875 -12.765625 5.5 -12.921875 C 6.132812 -13.078125 6.828125 -13.15625 7.578125 -13.15625 C 8.742188 -13.15625 9.753906 -12.972656 10.609375 -12.609375 C 11.460938 -12.242188 12.195312 -11.738281 12.8125 -11.09375 L 11.515625 -9.875 C 11.367188 -10.050781 11.179688 -10.234375 10.953125 -10.421875 C 10.722656 -10.617188 10.445312 -10.796875 10.125 -10.953125 C 9.800781 -11.109375 9.421875 -11.234375 8.984375 -11.328125 C 8.554688 -11.429688 8.0625 -11.484375 7.5 -11.484375 C 6.488281 -11.484375 5.710938 -11.304688 5.171875 -10.953125 C 4.628906 -10.609375 4.359375 -10.109375 4.359375 -9.453125 C 4.359375 -9.117188 4.421875 -8.835938 4.546875 -8.609375 C 4.671875 -8.390625 4.84375 -8.210938 5.0625 -8.078125 C 5.28125 -7.941406 5.523438 -7.835938 5.796875 -7.765625 C 6.066406 -7.691406 6.34375 -7.628906 6.625 -7.578125 L 8.640625 -7.28125 C 9.109375 -7.207031 9.597656 -7.113281 10.109375 -7 C 10.628906 -6.882812 11.101562 -6.695312 11.53125 -6.4375 C 11.96875 -6.1875 12.332031 -5.84375 12.625 -5.40625 C 12.914062 -4.976562 13.0625 -4.414062 13.0625 -3.71875 C 13.0625 -2.4375 12.566406 -1.445312 11.578125 -0.75 C 10.585938 -0.0507812 9.269531 0.296875 7.625 0.296875 Z M 7.625 0.296875 "/></g></g></g><g fill="#00ff03" fill-opacity="1"><g transform="translate(262.609582, 46.850613)"><g><path d="M 7.703125 0.296875 C 6.773438 0.296875 5.941406 0.140625 5.203125 -0.171875 C 4.460938 -0.484375 3.828125 -0.9375 3.296875 -1.53125 C 2.773438 -2.125 2.375 -2.832031 2.09375 -3.65625 C 1.8125 -4.476562 1.671875 -5.394531 1.671875 -6.40625 C 1.671875 -7.4375 1.816406 -8.363281 2.109375 -9.1875 C 2.398438 -10.019531 2.800781 -10.734375 3.3125 -11.328125 C 3.832031 -11.921875 4.453125 -12.375 5.171875 -12.6875 C 5.890625 -13 6.691406 -13.15625 7.578125 -13.15625 C 8.441406 -13.15625 9.222656 -13 9.921875 -12.6875 C 10.628906 -12.375 11.234375 -11.9375 11.734375 -11.375 C 12.234375 -10.820312 12.613281 -10.160156 12.875 -9.390625 C 13.144531 -8.628906 13.28125 -7.789062 13.28125 -6.875 L 13.28125 -5.9375 L 3.765625 -5.9375 L 3.765625 -5.328125 C 3.765625 -4.765625 3.851562 -4.242188 4.03125 -3.765625 C 4.21875 -3.285156 4.476562 -2.867188 4.8125 -2.515625 C 5.15625 -2.171875 5.570312 -1.898438 6.0625 -1.703125 C 6.550781 -1.515625 7.097656 -1.421875 7.703125 -1.421875 C 8.566406 -1.421875 9.3125 -1.617188 9.9375 -2.015625 C 10.570312 -2.410156 11.054688 -2.957031 11.390625 -3.65625 L 12.859375 -2.671875 C 12.472656 -1.804688 11.835938 -1.09375 10.953125 -0.53125 C 10.066406 0.0195312 8.984375 0.296875 7.703125 0.296875 Z M 7.578125 -11.515625 C 7.023438 -11.515625 6.515625 -11.414062 6.046875 -11.21875 C 5.585938 -11.019531 5.1875 -10.742188 4.84375 -10.390625 C 4.507812 -10.046875 4.242188 -9.632812 4.046875 -9.15625 C 3.859375 -8.6875 3.765625 -8.164062 3.765625 -7.59375 L 3.765625 -7.421875 L 11.140625 -7.421875 L 11.140625 -7.703125 C 11.140625 -8.265625 11.050781 -8.773438 10.875 -9.234375 C 10.695312 -9.703125 10.453125 -10.109375 10.140625 -10.453125 C 9.835938 -10.796875 9.46875 -11.054688 9.03125 -11.234375 C 8.59375 -11.421875 8.109375 -11.515625 7.578125 -11.515625 Z M 7.578125 -11.515625 "/></g></g></g><g fill="#00ff03" fill-opacity="1"><g transform="translate(277.563244, 46.850613)"><g/></g></g><g fill="#00ff03" fill-opacity="1"><g transform="translate(292.516906, 46.850613)"><g><path d="M 11.984375 0 L 10.515625 -4.953125 L 4.40625 -4.953125 L 2.9375 0 L 0.765625 0 L 6.109375 -17.390625 L 8.875 -17.390625 L 14.203125 0 Z M 7.578125 -15.171875 L 7.359375 -15.171875 L 4.90625 -6.78125 L 10.015625 -6.78125 Z M 7.578125 -15.171875 "/></g></g></g><g fill="#00ff03" fill-opacity="1"><g transform="translate(307.470568, 46.850613)"><g><path d="M 1.921875 -1.6875 L 5.6875 -1.6875 L 5.6875 -11.171875 L 1.921875 -11.171875 L 1.921875 -12.859375 L 7.671875 -12.859375 L 7.671875 -9.625 L 7.796875 -9.625 C 8.066406 -10.632812 8.570312 -11.425781 9.3125 -12 C 10.050781 -12.570312 10.992188 -12.859375 12.140625 -12.859375 L 13.9375 -12.859375 L 13.9375 -10.859375 L 11.515625 -10.859375 C 10.367188 -10.859375 9.441406 -10.523438 8.734375 -9.859375 C 8.023438 -9.203125 7.671875 -8.332031 7.671875 -7.25 L 7.671875 -1.6875 L 12.65625 -1.6875 L 12.65625 0 L 1.921875 0 Z M 1.921875 -1.6875 "/></g></g></g><g fill="#00ff03" fill-opacity="1"><g transform="translate(322.42423, 46.850613)"><g><path d="M 7.921875 0.296875 C 6.992188 0.296875 6.164062 0.132812 5.4375 -0.1875 C 4.71875 -0.507812 4.109375 -0.960938 3.609375 -1.546875 C 3.109375 -2.128906 2.726562 -2.832031 2.46875 -3.65625 C 2.21875 -4.488281 2.09375 -5.414062 2.09375 -6.4375 C 2.09375 -7.445312 2.222656 -8.363281 2.484375 -9.1875 C 2.753906 -10.019531 3.140625 -10.734375 3.640625 -11.328125 C 4.140625 -11.921875 4.742188 -12.375 5.453125 -12.6875 C 6.171875 -13 6.988281 -13.15625 7.90625 -13.15625 C 9.144531 -13.15625 10.15625 -12.878906 10.9375 -12.328125 C 11.71875 -11.785156 12.289062 -11.070312 12.65625 -10.1875 L 11.0625 -9.34375 C 10.832031 -10.007812 10.445312 -10.523438 9.90625 -10.890625 C 9.363281 -11.253906 8.695312 -11.4375 7.90625 -11.4375 C 7.320312 -11.4375 6.800781 -11.335938 6.34375 -11.140625 C 5.882812 -10.953125 5.492188 -10.679688 5.171875 -10.328125 C 4.859375 -9.984375 4.625 -9.570312 4.46875 -9.09375 C 4.3125 -8.613281 4.234375 -8.09375 4.234375 -7.53125 L 4.234375 -5.328125 C 4.234375 -4.765625 4.3125 -4.242188 4.46875 -3.765625 C 4.625 -3.285156 4.859375 -2.867188 5.171875 -2.515625 C 5.492188 -2.171875 5.882812 -1.898438 6.34375 -1.703125 C 6.8125 -1.515625 7.347656 -1.421875 7.953125 -1.421875 C 8.816406 -1.421875 9.53125 -1.617188 10.09375 -2.015625 C 10.65625 -2.410156 11.101562 -2.957031 11.4375 -3.65625 L 12.859375 -2.6875 C 12.472656 -1.820312 11.878906 -1.109375 11.078125 -0.546875 C 10.273438 0.015625 9.222656 0.296875 7.921875 0.296875 Z M 7.921875 0.296875 "/></g></g></g><g fill="#00ff03" fill-opacity="1"><g transform="translate(337.377892, 46.850613)"><g><path d="M 2.4375 -18.4375 L 4.4375 -18.4375 L 4.4375 -10.765625 L 4.53125 -10.765625 C 4.664062 -11.078125 4.832031 -11.378906 5.03125 -11.671875 C 5.226562 -11.960938 5.472656 -12.21875 5.765625 -12.4375 C 6.054688 -12.65625 6.398438 -12.828125 6.796875 -12.953125 C 7.203125 -13.085938 7.671875 -13.15625 8.203125 -13.15625 C 9.546875 -13.15625 10.625 -12.726562 11.4375 -11.875 C 12.25 -11.019531 12.65625 -9.8125 12.65625 -8.25 L 12.65625 0 L 10.671875 0 L 10.671875 -7.90625 C 10.671875 -9.082031 10.410156 -9.957031 9.890625 -10.53125 C 9.378906 -11.101562 8.625 -11.390625 7.625 -11.390625 C 7.226562 -11.390625 6.835938 -11.335938 6.453125 -11.234375 C 6.066406 -11.140625 5.722656 -10.988281 5.421875 -10.78125 C 5.128906 -10.582031 4.890625 -10.328125 4.703125 -10.015625 C 4.523438 -9.703125 4.4375 -9.335938 4.4375 -8.921875 L 4.4375 0 L 2.4375 0 Z M 2.4375 -18.4375 "/></g></g></g><g fill="#00ff03" fill-opacity="1"><g transform="translate(352.331554, 46.850613)"><g/></g></g><g fill="#00ff03" fill-opacity="1"><g transform="translate(367.285216, 46.850613)"><g><path d="M 2.1875 -17.390625 L 8.09375 -17.390625 C 9.59375 -17.390625 10.765625 -16.984375 11.609375 -16.171875 C 12.460938 -15.359375 12.890625 -14.269531 12.890625 -12.90625 C 12.890625 -11.863281 12.632812 -11.039062 12.125 -10.4375 C 11.613281 -9.84375 10.960938 -9.421875 10.171875 -9.171875 L 10.171875 -9.09375 C 11.148438 -8.863281 11.953125 -8.425781 12.578125 -7.78125 C 13.210938 -7.144531 13.53125 -6.222656 13.53125 -5.015625 C 13.53125 -4.316406 13.410156 -3.660156 13.171875 -3.046875 C 12.941406 -2.429688 12.613281 -1.894531 12.1875 -1.4375 C 11.769531 -0.988281 11.273438 -0.632812 10.703125 -0.375 C 10.128906 -0.125 9.507812 0 8.84375 0 L 2.1875 0 Z M 8.21875 -1.8125 C 9.1875 -1.8125 9.941406 -2.023438 10.484375 -2.453125 C 11.035156 -2.890625 11.3125 -3.5625 11.3125 -4.46875 L 11.3125 -5.484375 C 11.3125 -6.359375 11.035156 -7.015625 10.484375 -7.453125 C 9.941406 -7.898438 9.1875 -8.125 8.21875 -8.125 L 4.28125 -8.125 L 4.28125 -1.8125 Z M 7.875 -9.84375 C 8.757812 -9.84375 9.445312 -10.035156 9.9375 -10.421875 C 10.4375 -10.816406 10.6875 -11.414062 10.6875 -12.21875 L 10.6875 -13.1875 C 10.6875 -13.976562 10.4375 -14.570312 9.9375 -14.96875 C 9.445312 -15.375 8.757812 -15.578125 7.875 -15.578125 L 4.28125 -15.578125 L 4.28125 -9.84375 Z M 7.875 -9.84375 "/></g></g></g><g fill="#00ff03" fill-opacity="1"><g transform="translate(382.238878, 46.850613)"><g><path d="M 8.515625 -15.578125 L 8.515625 0 L 6.4375 0 L 6.4375 -15.578125 L 0.625 -15.578125 L 0.625 -17.390625 L 14.328125 -17.390625 L 14.328125 -15.578125 Z M 8.515625 -15.578125 "/></g></g></g><g fill="#00ff03" fill-opacity="1"><g transform="translate(397.19254, 46.850613)"><g><path d="M 2.25 0 L 0.875 -17.390625 L 2.734375 -17.390625 L 3.46875 -7.421875 L 3.84375 -2.171875 L 4.03125 -2.171875 L 6.328125 -12.859375 L 8.671875 -12.859375 L 10.96875 -2.171875 L 11.171875 -2.171875 L 11.53125 -7.421875 L 12.265625 -17.390625 L 14.078125 -17.390625 L 12.703125 0 L 9.6875 0 L 7.578125 -10.390625 L 7.375 -10.390625 L 5.265625 0 Z M 2.25 0 "/></g></g></g></svg>