<svg xmlns="http://www.w3.org/2000/svg" xmlns:xlink="http://www.w3.org/1999/xlink" width="800" zoomAndPan="magnify" viewBox="0 0 600 37.5" height="50" preserveAspectRatio="xMidYMid meet" version="1.0"><defs><g/></defs><g fill="#00ff03" fill-opacity="1"><g transform="translate(29.132695, 25.928026)"><g><path d="M 2.84375 0 L 2.84375 -22.078125 L 10.875 -22.078125 C 12.925781 -22.078125 14.488281 -21.515625 15.5625 -20.390625 C 16.632812 -19.273438 17.171875 -17.71875 17.171875 -15.71875 C 17.171875 -13.71875 16.632812 -12.15625 15.5625 -11.03125 C 14.488281 -9.914062 12.925781 -9.359375 10.875 -9.359375 L 5.5 -9.359375 L 5.5 0 Z M 5.5 -11.671875 L 10.8125 -11.671875 C 11.925781 -11.671875 12.796875 -11.945312 13.421875 -12.5 C 14.046875 -13.0625 14.359375 -13.859375 14.359375 -14.890625 L 14.359375 -16.546875 C 14.359375 -17.578125 14.046875 -18.367188 13.421875 -18.921875 C 12.796875 -19.484375 11.925781 -19.765625 10.8125 -19.765625 L 5.5 -19.765625 Z M 5.5 -11.671875 "/></g></g></g><g fill="#00ff03" fill-opacity="1"><g transform="translate(48.104382, 25.928026)"><g><path d="M 13.34375 -2.65625 L 13.21875 -2.65625 C 13.050781 -2.257812 12.835938 -1.875 12.578125 -1.5 C 12.328125 -1.132812 12.015625 -0.8125 11.640625 -0.53125 C 11.273438 -0.257812 10.835938 -0.0390625 10.328125 0.125 C 9.828125 0.289062 9.242188 0.375 8.578125 0.375 C 6.867188 0.375 5.492188 -0.164062 4.453125 -1.25 C 3.421875 -2.332031 2.90625 -3.863281 2.90625 -5.84375 L 2.90625 -16.3125 L 5.4375 -16.3125 L 5.4375 -6.296875 C 5.4375 -4.796875 5.765625 -3.679688 6.421875 -2.953125 C 7.078125 -2.222656 8.035156 -1.859375 9.296875 -1.859375 C 9.804688 -1.859375 10.300781 -1.921875 10.78125 -2.046875 C 11.269531 -2.179688 11.703125 -2.375 12.078125 -2.625 C 12.460938 -2.875 12.769531 -3.191406 13 -3.578125 C 13.226562 -3.972656 13.34375 -4.445312 13.34375 -5 L 13.34375 -16.3125 L 15.875 -16.3125 L 15.875 0 L 13.34375 0 Z M 13.34375 -2.65625 "/></g></g></g><g fill="#00ff03" fill-opacity="1"><g transform="translate(67.076068, 25.928026)"><g><path d="M 2.4375 -2.15625 L 7.203125 -2.15625 L 7.203125 -14.171875 L 2.4375 -14.171875 L 2.4375 -16.3125 L 9.734375 -16.3125 L 9.734375 -12.203125 L 9.90625 -12.203125 C 10.238281 -13.492188 10.875 -14.5 11.8125 -15.21875 C 12.75 -15.945312 13.945312 -16.3125 15.40625 -16.3125 L 17.671875 -16.3125 L 17.671875 -13.78125 L 14.609375 -13.78125 C 13.148438 -13.78125 11.972656 -13.359375 11.078125 -12.515625 C 10.179688 -11.679688 9.734375 -10.578125 9.734375 -9.203125 L 9.734375 -2.15625 L 16.0625 -2.15625 L 16.0625 0 L 2.4375 0 Z M 2.4375 -2.15625 "/></g></g></g><g fill="#00ff03" fill-opacity="1"><g transform="translate(86.047755, 25.928026)"><g><path d="M 3 -16.3125 L 5.53125 -16.3125 L 5.53125 -13.65625 L 5.65625 -13.65625 C 6.707031 -15.6875 8.382812 -16.703125 10.6875 -16.703125 C 12.6875 -16.703125 14.25 -15.953125 15.375 -14.453125 C 16.507812 -12.953125 17.078125 -10.851562 17.078125 -8.15625 C 17.078125 -5.457031 16.507812 -3.359375 15.375 -1.859375 C 14.25 -0.367188 12.6875 0.375 10.6875 0.375 C 8.382812 0.375 6.707031 -0.632812 5.65625 -2.65625 L 5.53125 -2.65625 L 5.53125 6.328125 L 3 6.328125 Z M 9.703125 -1.859375 C 11.179688 -1.859375 12.328125 -2.304688 13.140625 -3.203125 C 13.953125 -4.097656 14.359375 -5.285156 14.359375 -6.765625 L 14.359375 -9.546875 C 14.359375 -11.023438 13.953125 -12.210938 13.140625 -13.109375 C 12.328125 -14.003906 11.179688 -14.453125 9.703125 -14.453125 C 9.140625 -14.453125 8.601562 -14.378906 8.09375 -14.234375 C 7.59375 -14.085938 7.148438 -13.867188 6.765625 -13.578125 C 6.390625 -13.296875 6.085938 -12.945312 5.859375 -12.53125 C 5.640625 -12.125 5.53125 -11.644531 5.53125 -11.09375 L 5.53125 -5.21875 C 5.53125 -4.664062 5.640625 -4.179688 5.859375 -3.765625 C 6.085938 -3.359375 6.390625 -3.015625 6.765625 -2.734375 C 7.148438 -2.453125 7.59375 -2.234375 8.09375 -2.078125 C 8.601562 -1.929688 9.140625 -1.859375 9.703125 -1.859375 Z M 9.703125 -1.859375 "/></g></g></g><g fill="#00ff03" fill-opacity="1"><g transform="translate(105.019441, 25.928026)"><g><path d="M 9.484375 0.375 C 8.347656 0.375 7.320312 0.175781 6.40625 -0.21875 C 5.488281 -0.625 4.707031 -1.195312 4.0625 -1.9375 C 3.414062 -2.6875 2.925781 -3.582031 2.59375 -4.625 C 2.257812 -5.675781 2.09375 -6.851562 2.09375 -8.15625 C 2.09375 -9.445312 2.257812 -10.617188 2.59375 -11.671875 C 2.925781 -12.722656 3.414062 -13.625 4.0625 -14.375 C 4.707031 -15.125 5.488281 -15.695312 6.40625 -16.09375 C 7.320312 -16.5 8.347656 -16.703125 9.484375 -16.703125 C 10.617188 -16.703125 11.644531 -16.5 12.5625 -16.09375 C 13.488281 -15.695312 14.269531 -15.125 14.90625 -14.375 C 15.550781 -13.625 16.039062 -12.722656 16.375 -11.671875 C 16.71875 -10.617188 16.890625 -9.445312 16.890625 -8.15625 C 16.890625 -6.851562 16.71875 -5.675781 16.375 -4.625 C 16.039062 -3.582031 15.550781 -2.6875 14.90625 -1.9375 C 14.269531 -1.195312 13.488281 -0.625 12.5625 -0.21875 C 11.644531 0.175781 10.617188 0.375 9.484375 0.375 Z M 9.484375 -1.796875 C 10.898438 -1.796875 12.039062 -2.21875 12.90625 -3.0625 C 13.769531 -3.90625 14.203125 -5.210938 14.203125 -6.984375 L 14.203125 -9.328125 C 14.203125 -11.097656 13.769531 -12.40625 12.90625 -13.25 C 12.039062 -14.09375 10.898438 -14.515625 9.484375 -14.515625 C 8.078125 -14.515625 6.941406 -14.09375 6.078125 -13.25 C 5.210938 -12.40625 4.78125 -11.097656 4.78125 -9.328125 L 4.78125 -6.984375 C 4.78125 -5.210938 5.210938 -3.90625 6.078125 -3.0625 C 6.941406 -2.21875 8.078125 -1.796875 9.484375 -1.796875 Z M 9.484375 -1.796875 "/></g></g></g><g fill="#00ff03" fill-opacity="1"><g transform="translate(123.991128, 25.928026)"><g><path d="M 9.671875 0.375 C 7.960938 0.375 6.492188 0.0859375 5.265625 -0.484375 C 4.035156 -1.066406 2.988281 -1.84375 2.125 -2.8125 L 3.828125 -4.296875 C 4.609375 -3.472656 5.460938 -2.835938 6.390625 -2.390625 C 7.316406 -1.953125 8.429688 -1.734375 9.734375 -1.734375 C 11.003906 -1.734375 12.046875 -1.957031 12.859375 -2.40625 C 13.671875 -2.863281 14.078125 -3.578125 14.078125 -4.546875 C 14.078125 -4.972656 13.992188 -5.328125 13.828125 -5.609375 C 13.671875 -5.898438 13.457031 -6.128906 13.1875 -6.296875 C 12.914062 -6.460938 12.609375 -6.59375 12.265625 -6.6875 C 11.929688 -6.78125 11.570312 -6.859375 11.1875 -6.921875 L 8.640625 -7.3125 C 8.066406 -7.394531 7.445312 -7.507812 6.78125 -7.65625 C 6.113281 -7.800781 5.503906 -8.035156 4.953125 -8.359375 C 4.410156 -8.691406 3.953125 -9.128906 3.578125 -9.671875 C 3.210938 -10.222656 3.03125 -10.941406 3.03125 -11.828125 C 3.03125 -12.648438 3.191406 -13.359375 3.515625 -13.953125 C 3.847656 -14.554688 4.304688 -15.0625 4.890625 -15.46875 C 5.484375 -15.882812 6.179688 -16.191406 6.984375 -16.390625 C 7.785156 -16.597656 8.660156 -16.703125 9.609375 -16.703125 C 11.085938 -16.703125 12.367188 -16.46875 13.453125 -16 C 14.535156 -15.539062 15.46875 -14.898438 16.25 -14.078125 L 14.609375 -12.53125 C 14.421875 -12.757812 14.179688 -12.992188 13.890625 -13.234375 C 13.609375 -13.472656 13.257812 -13.691406 12.84375 -13.890625 C 12.4375 -14.097656 11.957031 -14.265625 11.40625 -14.390625 C 10.863281 -14.515625 10.234375 -14.578125 9.515625 -14.578125 C 8.234375 -14.578125 7.25 -14.351562 6.5625 -13.90625 C 5.875 -13.46875 5.53125 -12.828125 5.53125 -11.984375 C 5.53125 -11.566406 5.609375 -11.210938 5.765625 -10.921875 C 5.929688 -10.640625 6.148438 -10.414062 6.421875 -10.25 C 6.691406 -10.082031 7 -9.945312 7.34375 -9.84375 C 7.695312 -9.75 8.050781 -9.671875 8.40625 -9.609375 L 10.96875 -9.234375 C 11.5625 -9.148438 12.179688 -9.035156 12.828125 -8.890625 C 13.484375 -8.742188 14.085938 -8.503906 14.640625 -8.171875 C 15.191406 -7.847656 15.648438 -7.410156 16.015625 -6.859375 C 16.390625 -6.316406 16.578125 -5.601562 16.578125 -4.71875 C 16.578125 -3.09375 15.945312 -1.835938 14.6875 -0.953125 C 13.4375 -0.0664062 11.765625 0.375 9.671875 0.375 Z M 9.671875 0.375 "/></g></g></g><g fill="#00ff03" fill-opacity="1"><g transform="translate(142.962814, 25.928026)"><g><path d="M 9.765625 0.375 C 8.585938 0.375 7.53125 0.175781 6.59375 -0.21875 C 5.65625 -0.625 4.851562 -1.195312 4.1875 -1.9375 C 3.519531 -2.6875 3.007812 -3.582031 2.65625 -4.625 C 2.300781 -5.675781 2.125 -6.84375 2.125 -8.125 C 2.125 -9.4375 2.304688 -10.617188 2.671875 -11.671875 C 3.035156 -12.722656 3.546875 -13.625 4.203125 -14.375 C 4.859375 -15.125 5.644531 -15.695312 6.5625 -16.09375 C 7.476562 -16.5 8.492188 -16.703125 9.609375 -16.703125 C 10.710938 -16.703125 11.710938 -16.5 12.609375 -16.09375 C 13.503906 -15.695312 14.265625 -15.144531 14.890625 -14.4375 C 15.523438 -13.726562 16.007812 -12.890625 16.34375 -11.921875 C 16.6875 -10.953125 16.859375 -9.890625 16.859375 -8.734375 L 16.859375 -7.53125 L 4.78125 -7.53125 L 4.78125 -6.765625 C 4.78125 -6.046875 4.894531 -5.378906 5.125 -4.765625 C 5.351562 -4.160156 5.679688 -3.632812 6.109375 -3.1875 C 6.546875 -2.75 7.078125 -2.40625 7.703125 -2.15625 C 8.328125 -1.914062 9.015625 -1.796875 9.765625 -1.796875 C 10.867188 -1.796875 11.816406 -2.050781 12.609375 -2.5625 C 13.410156 -3.070312 14.023438 -3.769531 14.453125 -4.65625 L 16.3125 -3.390625 C 15.832031 -2.285156 15.023438 -1.378906 13.890625 -0.671875 C 12.765625 0.0234375 11.390625 0.375 9.765625 0.375 Z M 9.609375 -14.609375 C 8.921875 -14.609375 8.28125 -14.484375 7.6875 -14.234375 C 7.09375 -13.984375 6.578125 -13.632812 6.140625 -13.1875 C 5.710938 -12.75 5.378906 -12.226562 5.140625 -11.625 C 4.898438 -11.019531 4.78125 -10.359375 4.78125 -9.640625 L 4.78125 -9.421875 L 14.140625 -9.421875 L 14.140625 -9.765625 C 14.140625 -10.484375 14.023438 -11.140625 13.796875 -11.734375 C 13.578125 -12.328125 13.269531 -12.835938 12.875 -13.265625 C 12.488281 -13.703125 12.015625 -14.035156 11.453125 -14.265625 C 10.898438 -14.492188 10.285156 -14.609375 9.609375 -14.609375 Z M 9.609375 -14.609375 "/></g></g></g><path stroke-linecap="butt" transform="matrix(0.740132, 0.000000000000000056, -0.000000000000000056, 0.740132, 22.908565, 30.906745)" fill="none" stroke-linejoin="miter" d="M 1.501039 1.002109 L 747.261626 1.002109 " stroke="#00ff03" stroke-width="2" stroke-opacity="1" stroke-miterlimit="4"/><path stroke-linecap="round" transform="matrix(0.740132, 0.000000000000000056, -0.000000000000000056, 0.740132, 22.908565, 30.906745)" fill="none" stroke-linejoin="round" d="M 0.99965 -2.000947 L 0.99965 3.999887 " stroke="#00ff03" stroke-width="2" stroke-opacity="1" stroke-miterlimit="4"/><path stroke-linecap="round" transform="matrix(0.740132, 0.000000000000000056, -0.000000000000000056, 0.740132, 22.908565, 30.906745)" fill="none" stroke-linejoin="round" d="M 747.763015 -2.000947 L 747.763015 3.999887 " stroke="#00ff03" stroke-width="2" stroke-opacity="1" stroke-miterlimit="4"/></svg>